# xmcd
# 
# Track frame offsets:
#     182
#     37170
#     65525
#     86082
#     124362
#     147132
#     171267
#     190932
# 
# Disc length: 2886
# 
# Revision: 7
# Processed by: cddbd v1.5.2PL0 Copyright (c) Steve Scherf et al.
# Submitted via: fre:ac v1.0.17
# 
DISCID=770b4408
DTITLE=Various Artist - Kult Dance Klassix [CD1)
DYEAR=1992
DGENRE=Dance
TTITLE0=Viscious Pink - Can't You See? (8.15 To Nowhere Mix)
TTITLE1=Grace Jones - Slave To The Rhythm
TTITLE2=D.A.F. - Der Räuber und der Prinz
TTITLE3=Art Of Noise - Beat Box (Diversion One)
TTITLE4=Front 242 - Headhunter (V1.0)
TTITLE5=Tubeway Army - Are Friends Electric? (Original 12 Inch Mix)
TTITLE6=Human League - Being Boiled
TTITLE7=Tuxedomoon - No Tears
EXTD=
EXTT0=
EXTT1=
EXTT2=
EXTT3=
EXTT4=
EXTT5=
EXTT6=
EXTT7=
PLAYORDER=
